<svg xmlns="http://www.w3.org/2000/svg" xmlns:xlink="http://www.w3.org/1999/xlink" width="20" height="20" viewBox="0 0 20 20">
  <defs>
    <linearGradient id="linear-gradient" y1="0.5" x2="1" y2="0.5" gradientUnits="objectBoundingBox">
      <stop offset="0" stop-color="#fff"/>
      <stop offset="1" stop-color="#6e007d"/>
    </linearGradient>
  </defs>
  <g id="Group_16104" data-name="Group 16104" transform="translate(-1231 -76)">
    <g id="Group_16103" data-name="Group 16103" transform="translate(2807.601 1063.601)">
      <circle id="Ellipse_94" data-name="Ellipse 94" cx="10" cy="10" r="10" transform="translate(-1576.601 -987.601)" fill="#fff"/>
    </g>
    <g id="Group_2806" data-name="Group 2806" transform="translate(1233.5 77.5)">
      <path id="Path_4640" data-name="Path 4640" d="M400.907,189.971l-.649.375h0l-3.806,2.2v1.151a.295.295,0,1,1-.589,0v-1.133l-4.086-2.359-.4-.231h0l-.983.566a.293.293,0,0,1-.147.039h0a.3.3,0,0,1-.043,0l-.013,0-.032-.008-.013,0-.02-.008-.017-.008-.016-.009-.016-.011-.015-.011-.019-.016,0,0a.294.294,0,0,1,.06-.465l.835-.481.153-.088v-5.145l-.23-.132-.757-.436a.3.3,0,0,1-.108-.4h0a.285.285,0,0,1,.02-.03l.006-.007.021-.023,0,0a.3.3,0,0,1,.033-.028l.008-.006a.283.283,0,0,1,.035-.021l.005,0,.029-.011.007,0,.022-.006.007,0,.022,0h.068l.02,0,.01,0,.019,0,.011,0,.018.007.011,0,.021.01.007,0,.983.566h0l.5-.288,3.985-2.3v-1.133a.3.3,0,0,1,.265-.293l.03,0h0a.3.3,0,0,1,.295.295v1.151l.007,0,5.463,3.144,1.374-.786a.711.711,0,0,0,.259-.967l-.005-.009h0l-.005-.009-.009-.015-.013-.019a1.37,1.37,0,0,0-.454-.465l-.816-.471-1.71-.987-3.722-2.149a1.393,1.393,0,0,0-.681-.162,1.5,1.5,0,0,0-.545.1,1.025,1.025,0,0,0-.136.065l-6.248,3.607a1.526,1.526,0,0,0-.677,1.1c0,.028,0,.055,0,.082v7.214q0,.041,0,.082a1.526,1.526,0,0,0,.677,1.1l6.248,3.607a1.034,1.034,0,0,0,.139.066,1.5,1.5,0,0,0,.542.1,1.393,1.393,0,0,0,.681-.162l3.1-1.789,2.1-1.214h0l1.047-.6a1.393,1.393,0,0,0,.481-.508Z" transform="translate(-388.533 -178.33)" fill="#13a4d1"/>
      <path id="Path_4649" data-name="Path 4649" d="M400.907,416.762l-.649.375h0l-3.806,2.2v1.151a.295.295,0,1,1-.589,0v-1.133l-4.086-2.359-.4-.231h0l-.983.566a.293.293,0,0,1-.147.039h0a.294.294,0,0,1-.043,0l-.013,0-.032-.008-.013,0-.02-.008-.017-.008-.016-.009-.016-.011-.015-.011-.019-.016,0,0a.294.294,0,0,1,.06-.465l.835-.481.153-.088v-1.7a24.145,24.145,0,0,1-2.555-.153v2.884q0,.041,0,.082a1.526,1.526,0,0,0,.677,1.1l6.248,3.607a1.038,1.038,0,0,0,.139.066,1.5,1.5,0,0,0,.542.1,1.393,1.393,0,0,0,.681-.162l3.1-1.789,2.1-1.214h0l1.047-.6a1.393,1.393,0,0,0,.481-.508Z" transform="translate(-388.533 -405.121)" fill="#13a4d1"/>
      <path id="Path_4650" data-name="Path 4650" d="M609.466,474.5l-.649.375h0l-3.192,1.843v2.95l2.855-1.649,2.1-1.214h0l1.047-.6a1.393,1.393,0,0,0,.481-.508Z" transform="translate(-597.092 -462.863)" opacity="0.329" fill="url(#linear-gradient)" style="mix-blend-mode: multiply;isolation: isolate"/>
      <g id="Group_2805" data-name="Group 2805" transform="translate(4.273 5.228)">
        <g id="Group_2801" data-name="Group 2801" transform="translate(0 0)">
          <path id="Path_4651" data-name="Path 4651" d="M498.949,315.671a1.906,1.906,0,1,1,2.607.686,1.908,1.908,0,0,1-2.607-.686m-1.256.733a3.361,3.361,0,1,0,1.21-4.6,3.361,3.361,0,0,0-1.21,4.6Z" transform="translate(-497.234 -311.349)" fill="#13a4d1"/>
        </g>
        <g id="Group_2804" data-name="Group 2804" transform="translate(0.105 2.556)">
          <g id="Group_2802" data-name="Group 2802">
            <path id="Path_4652" data-name="Path 4652" d="M505.06,376.951a1.906,1.906,0,0,1-3.668.92q-.732.1-1.48.139a3.361,3.361,0,0,0,6.519-1.637Q505.754,376.693,505.06,376.951Z" transform="translate(-499.912 -376.373)" fill="#13a4d1"/>
          </g>
          <g id="Group_2803" data-name="Group 2803" transform="translate(5.239 1.624)">
            <path id="Path_4653" data-name="Path 4653" d="M638.358,420.132a.712.712,0,0,1,.259.968l-.019.033a.708.708,0,0,1-.965.259l-4.069-2.355a.712.712,0,0,1-.259-.967l.019-.033a.708.708,0,0,1,.966-.259Z" transform="translate(-633.211 -417.683)" fill="#13a4d1"/>
          </g>
        </g>
      </g>
    </g>
  </g>
</svg>
