<svg xmlns="http://www.w3.org/2000/svg" xmlns:xlink="http://www.w3.org/1999/xlink" width="265.661" height="189.168" viewBox="0 0 265.661 189.168">
  <defs>
    <filter id="Path_4640" x="69.469" y="0" width="127.267" height="140.096" filterUnits="userSpaceOnUse">
      <feOffset dy="3" input="SourceAlpha"/>
      <feGaussianBlur stdDeviation="5" result="blur"/>
      <feFlood flood-color="#150428" flood-opacity="0.149"/>
      <feComposite operator="in" in2="blur"/>
      <feComposite in="SourceGraphic"/>
    </filter>
    <linearGradient id="linear-gradient" y1="0.5" x2="1" y2="0.5" gradientUnits="objectBoundingBox">
      <stop offset="0" stop-color="#fff"/>
      <stop offset="1" stop-color="#6e007d"/>
    </linearGradient>
  </defs>
  <g id="Group_16070" data-name="Group 16070" transform="translate(-831.675 -324.447)">
    <g id="Group_2800" data-name="Group 2800" transform="translate(831.675 469.617)">
      <g id="Group_2799" data-name="Group 2799">
        <path id="Path_4641" data-name="Path 4641" d="M894.968,327.522c-13.085,0-19.6-8.662-19.6-21.968,0-13.745,6.887-22.03,20.347-22.03,5.2,0,9.391,1.255,12.584,3.891,3.005,2.7,4.7,6.4,5.134,11.047h-5.259a4.237,4.237,0,0,1-4.069-2.573c-1.44-3.075-4.257-4.645-8.389-4.645-8.076,0-11.645,5.712-11.645,14.31,0,8.348,3.443,14.248,11.394,14.248,5.447,0,8.577-3.013,9.516-7.72h8.452C912.623,321.936,905.736,327.522,894.968,327.522Z" transform="translate(-875.372 -283.524)" fill="#150428"/>
        <path id="Path_4642" data-name="Path 4642" d="M1117.715,301.286c-4.946,0-7.075,4.143-7.075,9.226v17.009h-8.327v-44h4.195c2.755,0,4.132,1.444,4.132,4.205v11.235c4.257-4.9,9.453-6.276,15.652-4.08q6.949,2.542,6.574,13.369v19.269H1124.6V310.513C1124.6,304.927,1122.472,301.286,1117.715,301.286Z" transform="translate(-1057.926 -283.524)" fill="#150428"/>
        <path id="Path_4643" data-name="Path 4643" d="M1305.969,370.089c-10.017-.307-15.026-6.006-15.026-17.039s5.071-16.548,15.15-16.61c10.518,0,15.464,6.313,14.838,19H1299.52c.313,4.965,2.5,7.478,6.574,7.478a7.771,7.771,0,0,0,5.384-2.329,3.685,3.685,0,0,1,2.817-1.165h6.136C1318.615,366.289,1314.107,370.089,1305.969,370.089Zm-6.324-20.471H1312.1c-.5-4.29-2.567-6.5-6.135-6.5S1300.271,345.328,1299.645,349.618Z" transform="translate(-1209.662 -326.091)" fill="#150428"/>
        <path id="Path_4644" data-name="Path 4644" d="M1485.45,348.864v21.1H1477V350.549c0-9.426,4.758-14.108,14.211-14.108,4.257,0,7.513.937,9.892,2.809,2.379-1.81,5.634-2.684,9.892-2.684,9.454,0,14.149,4.682,14.087,14.108v19.415h-4.32c-2.755-.187-4.132-1.5-4.132-4.12v-16.98c-.188-3.434-2.066-5.119-5.76-5.119s-5.572,1.685-5.635,5.119v20.975h-8.389v-21.1c-.188-3.433-2.066-5.119-5.76-5.119S1485.512,345.431,1485.45,348.864Z" transform="translate(-1359.326 -326.091)" fill="#150428"/>
        <path id="Path_4645" data-name="Path 4645" d="M1759.474,283.524c2.755,0,4.069,1.426,4.006,4.214v2.529h-8.325v-6.743Zm0,10.28c2.692,0,4.007,1.339,4.007,4.079v29.639h-8.327V293.8Z" transform="translate(-1583.079 -283.524)" fill="#150428"/>
        <path id="Path_4646" data-name="Path 4646" d="M1838.38,287.73v39.793h-8.326v-44h4.32A4.162,4.162,0,0,1,1838.38,287.73Z" transform="translate(-1643.328 -283.524)" fill="#150428"/>
        <path id="Path_4647" data-name="Path 4647" d="M1919.977,370.089c-10.017-.307-15.026-6.006-15.026-17.039s5.071-16.548,15.151-16.61c10.518,0,15.464,6.313,14.838,19h-21.411c.313,4.965,2.5,7.478,6.574,7.478a7.769,7.769,0,0,0,5.384-2.329,3.686,3.686,0,0,1,2.817-1.165h6.135C1932.623,366.289,1928.116,370.089,1919.977,370.089Zm-6.323-20.471h12.459c-.5-4.29-2.567-6.5-6.135-6.5S1914.279,345.328,1913.653,349.618Z" transform="translate(-1703.576 -326.091)" fill="#150428"/>
        <path id="Path_4648" data-name="Path 4648" d="M2100.2,345.4h-8.326c1-6.016,5.321-8.963,12.959-8.963,9.14,0,13.773,2.947,13.961,8.963v11.051c0,8.963-5.509,12.954-14.462,13.568-7.951.614-13.46-3.008-13.46-10.191.187-7.8,5.948-9.884,14.336-10.682,3.569-.43,5.384-1.473,5.384-3.254-.187-1.841-1.94-2.763-5.384-2.763C2102.265,343.133,2100.637,343.87,2100.2,345.4Zm10.518,10.682v-3.008a36.623,36.623,0,0,1-6.636,1.965c-3.318.614-5.009,2.149-5.009,4.543.188,2.578,1.565,3.806,4.195,3.806C2107.9,363.392,2110.717,360.691,2110.717,356.086Z" transform="translate(-1853.132 -326.091)" fill="#150428"/>
      </g>
    </g>
    <g id="Group_2806" data-name="Group 2806" transform="translate(916.144 336.447)">
      <g transform="matrix(1, 0, 0, 1, -84.47, -12)" filter="url(#Path_4640)">
        <path id="Path_4640-2" data-name="Path 4640" d="M468.148,253.232l-4.173,2.41h0l-24.488,14.138v7.4a1.9,1.9,0,1,1-3.793,0v-7.292l-26.287-15.177-2.569-1.483h0l-6.323,3.644a1.887,1.887,0,0,1-.945.254h0a1.894,1.894,0,0,1-.279-.023c-.028,0-.055-.011-.082-.016a1.819,1.819,0,0,1-.2-.051l-.081-.027c-.043-.015-.085-.032-.127-.051s-.075-.035-.112-.054-.069-.037-.1-.058-.072-.045-.106-.069-.065-.047-.1-.073-.082-.067-.12-.1c-.007-.007-.015-.014-.022-.021a1.893,1.893,0,0,1,.383-2.994l5.369-3.094.982-.565v-33.1l-1.479-.852-4.872-2.807a1.9,1.9,0,0,1-.7-2.59l0,0a1.852,1.852,0,0,1,.129-.192l.036-.046a1.768,1.768,0,0,1,.134-.15l.018-.019a1.861,1.861,0,0,1,.212-.179l.052-.036a1.828,1.828,0,0,1,.227-.133l.034-.014a1.862,1.862,0,0,1,.183-.073l.044-.014c.046-.014.092-.028.139-.038l.045-.01c.048-.01.1-.018.144-.024l.047-.006q.071-.007.143-.009h.052c.046,0,.092,0,.138.005l.058,0c.044,0,.087.011.131.019l.064.011c.041.009.082.02.123.031.023.006.046.012.069.019.039.013.078.028.117.044.023.009.047.017.069.027.045.02.089.043.132.067.016.008.032.015.047.024l6.323,3.643h0l3.215-1.856,25.642-14.8v-7.292a1.893,1.893,0,0,1,1.893-1.9h0a1.9,1.9,0,0,1,1.9,1.9v7.4l.048-.015,35.153,20.232,8.839-5.058a4.576,4.576,0,0,0,1.669-6.224l-.033-.058h0c-.013-.02-.025-.04-.036-.058l-.055-.1c-.025-.043-.056-.081-.081-.124a8.811,8.811,0,0,0-2.921-2.992l-5.253-3.032-11-6.352-23.945-13.825a8.964,8.964,0,0,0-4.38-1.043,9.66,9.66,0,0,0-3.507.628,6.623,6.623,0,0,0-.875.416l-40.2,23.208a9.822,9.822,0,0,0-4.357,7.059c-.015.178-.023.355-.023.529v46.418q0,.261.023.529a9.821,9.821,0,0,0,4.357,7.059l40.2,23.208a6.689,6.689,0,0,0,.894.424,9.678,9.678,0,0,0,3.488.619,8.964,8.964,0,0,0,4.38-1.043l19.934-11.509,13.527-7.809h0l6.738-3.89a8.962,8.962,0,0,0,3.093-3.271Z" transform="translate(-304.06 -166.33)" fill="#1aeccf"/>
      </g>
      <path id="Path_4649" data-name="Path 4649" d="M468.148,429.6l-4.173,2.41h0l-24.488,14.138v7.4a1.9,1.9,0,1,1-3.793,0v-7.292l-26.287-15.177-2.569-1.483h0l-6.323,3.644a1.887,1.887,0,0,1-.945.254h0a1.894,1.894,0,0,1-.279-.023c-.028,0-.055-.011-.082-.016a1.806,1.806,0,0,1-.2-.051l-.081-.027c-.043-.015-.085-.032-.127-.051s-.075-.035-.112-.054-.069-.037-.1-.058-.071-.045-.106-.069-.065-.047-.1-.073-.082-.067-.12-.1c-.007-.007-.015-.014-.022-.021a1.893,1.893,0,0,1,.383-2.994l5.369-3.094.982-.566V415.386a155.392,155.392,0,0,1-16.438-.986v18.556q0,.261.023.528a9.822,9.822,0,0,0,4.357,7.059l40.2,23.208a6.678,6.678,0,0,0,.894.424,9.676,9.676,0,0,0,3.488.619,8.964,8.964,0,0,0,4.38-1.043l19.934-11.509,13.527-7.809h0l6.738-3.89a8.961,8.961,0,0,0,3.093-3.27Z" transform="translate(-388.533 -354.698)" fill="#13a4d1"/>
      <path id="Path_4650" data-name="Path 4650" d="M630.338,474.5l-4.174,2.41h0l-20.539,11.858v18.982L624,497.147l13.527-7.809h0l6.738-3.89a8.964,8.964,0,0,0,3.093-3.27Z" transform="translate(-550.723 -399.602)" opacity="0.4" fill="url(#linear-gradient)" style="mix-blend-mode: multiply;isolation: isolate"/>
      <g id="Group_2805" data-name="Group 2805" transform="translate(27.49 33.64)">
        <g id="Group_2801" data-name="Group 2801" transform="translate(0 0)">
          <path id="Path_4651" data-name="Path 4651" d="M508.265,339.154a12.266,12.266,0,1,1,16.774,4.417,12.279,12.279,0,0,1-16.774-4.417m-8.083,4.713a21.623,21.623,0,1,0,7.787-29.571,21.623,21.623,0,0,0-7.787,29.571Z" transform="translate(-497.235 -311.349)" fill="#f7e13e"/>
        </g>
        <g id="Group_2804" data-name="Group 2804" transform="translate(0.677 16.444)">
          <g id="Group_2802" data-name="Group 2802">
            <path id="Path_4652" data-name="Path 4652" d="M533.036,380.09a12.265,12.265,0,0,1-23.6,5.921q-4.707.643-9.521.9a21.622,21.622,0,0,0,41.941-10.532Q537.5,378.428,533.036,380.09Z" transform="translate(-499.912 -376.373)" fill="#f4a640"/>
          </g>
          <g id="Group_2803" data-name="Group 2803" transform="translate(33.711 10.447)">
            <path id="Path_4653" data-name="Path 4653" d="M666.328,433.44A4.578,4.578,0,0,1,668,439.666l-.123.214a4.553,4.553,0,0,1-6.211,1.665l-26.178-15.15a4.578,4.578,0,0,1-1.669-6.225l.123-.214a4.553,4.553,0,0,1,6.211-1.665Z" transform="translate(-633.211 -417.683)" fill="#f4a640"/>
          </g>
        </g>
      </g>
    </g>
  </g>
</svg>
