<svg xmlns="http://www.w3.org/2000/svg" xmlns:xlink="http://www.w3.org/1999/xlink" width="354.148" height="373.355" viewBox="0 0 354.148 373.355">
  <defs>
    <linearGradient id="linear-gradient" x1="1" y1="0.5" x2="0" y2="0.5" gradientUnits="objectBoundingBox">
      <stop offset="0" stop-color="#85def8"/>
      <stop offset="1" stop-color="#7ab7e5"/>
    </linearGradient>
    <linearGradient id="linear-gradient-2" x1="1.001" y1="0.5" x2="0.001" y2="0.5" gradientUnits="objectBoundingBox">
      <stop offset="0" stop-color="#ecc4d7"/>
      <stop offset="0.42" stop-color="#efd4d1"/>
      <stop offset="1" stop-color="#f2eac9"/>
    </linearGradient>
    <linearGradient id="linear-gradient-3" x1="1" y1="0.5" x2="0.001" y2="0.5" gradientUnits="objectBoundingBox">
      <stop offset="0" stop-color="#c1c8f2"/>
      <stop offset="1" stop-color="#1a7fc1"/>
    </linearGradient>
    <linearGradient id="linear-gradient-4" x1="0.522" y1="0.209" x2="0.402" y2="1.462" gradientUnits="objectBoundingBox">
      <stop offset="0.42" stop-color="#efd4d1"/>
      <stop offset="0.65" stop-color="#ecc4d7"/>
      <stop offset="1" stop-color="#f2eac9"/>
    </linearGradient>
    <linearGradient id="linear-gradient-5" x1="-0.786" y1="-0.094" x2="0.753" y2="0.527" gradientUnits="objectBoundingBox">
      <stop offset="0" stop-color="#ecc4d7"/>
      <stop offset="0.42" stop-color="#785757"/>
      <stop offset="0.55" stop-color="#927771"/>
      <stop offset="1" stop-color="#f2eac9"/>
    </linearGradient>
    <linearGradient id="linear-gradient-6" x1="0.295" y1="0.485" x2="0.929" y2="0.525" xlink:href="#linear-gradient-2"/>
    <linearGradient id="linear-gradient-7" x1="-315.057" y1="6.7" x2="-314.056" y2="6.7" xlink:href="#linear-gradient-3"/>
    <linearGradient id="linear-gradient-8" x1="-714.088" y1="20.504" x2="-713.089" y2="20.504" xlink:href="#linear-gradient-2"/>
    <linearGradient id="linear-gradient-9" x1="0.721" y1="0.242" x2="0.502" y2="0.497" gradientUnits="objectBoundingBox">
      <stop offset="0" stop-color="#69e3ff"/>
      <stop offset="1" stop-color="#69bbed"/>
    </linearGradient>
    <linearGradient id="linear-gradient-10" x1="0.599" y1="0.193" x2="0.366" y2="0.917" gradientUnits="objectBoundingBox">
      <stop offset="0" stop-color="#1aeccf"/>
      <stop offset="1" stop-color="#13a4d1"/>
    </linearGradient>
    <linearGradient id="linear-gradient-11" x1="1.288" y1="0.181" x2="0.332" y2="0.236" xlink:href="#linear-gradient-2"/>
    <linearGradient id="linear-gradient-12" x1="0.92" y1="-0.219" x2="0.602" y2="0.145" xlink:href="#linear-gradient-3"/>
    <linearGradient id="linear-gradient-13" x1="0.541" y1="0.461" x2="0.472" y2="0.539" xlink:href="#linear-gradient-9"/>
    <linearGradient id="linear-gradient-14" x1="0.519" y1="0.38" x2="0.67" y2="1.426" xlink:href="#linear-gradient-9"/>
    <linearGradient id="linear-gradient-15" x1="0.849" y1="0.21" x2="0.353" y2="0.726" xlink:href="#linear-gradient-9"/>
    <linearGradient id="linear-gradient-16" y1="0.5" x2="1" y2="0.5" gradientUnits="objectBoundingBox">
      <stop offset="0" stop-color="#eec6d9"/>
      <stop offset="0.42" stop-color="#f1d6d3"/>
      <stop offset="1" stop-color="#f4eccb"/>
    </linearGradient>
    <linearGradient id="linear-gradient-17" x1="1" y1="0.5" x2="0" y2="0.5" xlink:href="#linear-gradient-9"/>
    <linearGradient id="linear-gradient-18" x1="1.001" y1="0.501" x2="0.002" y2="0.501" xlink:href="#linear-gradient-16"/>
    <linearGradient id="linear-gradient-19" y1="0.501" x2="1" y2="0.501" gradientUnits="objectBoundingBox">
      <stop offset="0" stop-color="#d09bc0"/>
      <stop offset="0.21" stop-color="#cc93ba"/>
      <stop offset="0.54" stop-color="#c17ea9"/>
      <stop offset="0.95" stop-color="#b05b8d"/>
      <stop offset="0.96" stop-color="#af5a8c"/>
    </linearGradient>
    <linearGradient id="linear-gradient-20" x1="-0.198" y1="69.579" x2="0.804" y2="69.579" xlink:href="#linear-gradient-19"/>
    <linearGradient id="linear-gradient-21" x1="0.22" y1="0.3" x2="0.917" y2="0.824" xlink:href="#linear-gradient-16"/>
    <linearGradient id="linear-gradient-22" x1="1" y1="0.502" x2="0" y2="0.502" xlink:href="#linear-gradient-9"/>
    <linearGradient id="linear-gradient-23" y1="0.5" x2="1" y2="0.5" gradientUnits="objectBoundingBox">
      <stop offset="0" stop-color="#86e0fa"/>
      <stop offset="1" stop-color="#7ab9e7"/>
    </linearGradient>
    <linearGradient id="linear-gradient-25" x1="-0.002" y1="0.495" y2="0.495" xlink:href="#linear-gradient-23"/>
    <linearGradient id="linear-gradient-26" y1="0.501" y2="0.501" xlink:href="#linear-gradient-23"/>
    <radialGradient id="radial-gradient" cx="0.5" cy="0.5" r="1.059" gradientUnits="objectBoundingBox">
      <stop offset="0.21" stop-color="#fff"/>
      <stop offset="0.4" stop-color="#fff" stop-opacity="0"/>
    </radialGradient>
    <linearGradient id="linear-gradient-30" x1="0.065" y1="0.369" x2="1.07" y2="0.739" xlink:href="#linear-gradient-23"/>
    <linearGradient id="linear-gradient-31" x1="0.045" y1="0.357" x2="1.05" y2="0.717" xlink:href="#linear-gradient-23"/>
    <linearGradient id="linear-gradient-35" x1="0.045" y1="0.356" x2="1.05" y2="0.716" xlink:href="#linear-gradient-23"/>
    <linearGradient id="linear-gradient-38" x1="0.045" y1="0.355" x2="1.05" y2="0.715" xlink:href="#linear-gradient-23"/>
    <linearGradient id="linear-gradient-39" x1="0.091" y1="0.382" x2="1.095" y2="0.769" xlink:href="#linear-gradient-23"/>
  </defs>
  <g id="Group_2780" data-name="Group 2780" transform="translate(-429 -2589)">
    <g id="Page-1" transform="translate(429 2589)">
      <g id="ManyPixels-Home" transform="translate(0 0)">
        <g id="enable-by-technology" transform="translate(0 0)">
          <path id="Path" d="M.39,242.2h0a15.293,15.293,0,0,1,7.878-13.36l179.1-99.493,20.709-11.085a14.917,14.917,0,1,1,14.283,26.192L22.678,255.339A15.005,15.005,0,0,1,.39,242.2Z" transform="translate(-0.39 -26.864)" opacity="0.22" fill="url(#linear-gradient)"/>
          <ellipse id="Oval" cx="20.57" cy="11.311" rx="20.57" ry="11.311" transform="translate(29.394 217.548)" fill="#151f5b" opacity="0.13"/>
          <ellipse id="Oval-2" data-name="Oval" cx="29.264" cy="16.09" rx="29.264" ry="16.09" transform="translate(264.897 341.176)" fill="#151f5b" opacity="0.13"/>
          <path id="Path-2" data-name="Path" d="M70.738,167.785l5.561,3.99s12.786-14.431,16.219-14.431,3.656,1.154,3.461,2.317,0,3.652-1.154,4.231a22.779,22.779,0,0,1-3.846,1.145s-11.354,13.17-13.846,13.554-10.96-5.3-10.96-5.3Z" transform="translate(-15.366 -36.175)" fill="url(#linear-gradient-2)"/>
          <path id="Path-3" data-name="Path" d="M60.7,277.049s6.524,3.995,7.3,5.7.107,3.244-3.629,2.35-5.839-1.279-7.506-2.183-3.846-2.887-3.212-4.5A6.659,6.659,0,0,1,56.548,275C57.322,274.752,60.7,277.049,60.7,277.049Z" transform="translate(-12.492 -62.954)" fill="#061c3d"/>
          <path id="Path-4" data-name="Path" d="M61.5,209.072c.055,2.73.329-1.391.553,1.334.869,10.192,3.851,18.838,2.493,33.3-.231,2.521-2.317,9.268-2.808,11.772-.422,2.054-.741,5.876-2.048,7.549-1.145,1.464-3.55,1.264-4.9.237-1.923-1.441-1.027-4.124-.894-6.186l1.145-17.517a5.018,5.018,0,0,0,0-1.343c-.171-.876-4.365-10.343-4.291-15a70.437,70.437,0,0,0-.77-9.62s1.923-5.241,5.839-5.654a8.383,8.383,0,0,1,5.679,1.131Z" transform="translate(-11.68 -47.67)" fill="#151f5b"/>
          <path id="Path-5" data-name="Path" d="M51.951,286.051s5.339,5.3,5.348,7.053-3.336,2.212-6.733.218-5.329-2.971-6.608-4.3-2.012-4.087-.57-5.329a6.265,6.265,0,0,1,3.851-1.771C48.16,281.931,51.951,286.051,51.951,286.051Z" transform="translate(-9.998 -64.536)" fill="#061c3d"/>
          <path id="Path-6" data-name="Path" d="M35.261,212.643a12.918,12.918,0,0,0,.07,1.608c.4,7.943,3.846,17.535,4.2,20.39.422,3.068,1.163,13.976,1.548,21.526.348,6.812.269,11.048.964,12.854h0c.079.171,3.629,2.03,5.056,1.048s2.78-17.874,2.887-23.781.778-8.754,1.154-12.822c1.154-12.688,1.27-20.621,1.27-20.621a98.579,98.579,0,0,0-10.056-1.7,17.283,17.283,0,0,0-7.1,1.5Z" transform="translate(-8.327 -48.424)" fill="#222a72"/>
          <path id="Path-7" data-name="Path" d="M33.465,169.8c.241,1.52.464,3.077.607,4.634.4,3.967.584,8.012.644,11.729.125,8.342-.385,14.977-.385,14.977s5.07,2.252,13.11,1.557,10.283-5.177,10.283-5.177-.653-18.671-.857-25.556,3.309-7.7-1.01-13.142c-.181-.223-.566-.626-.574-.626-4.472-4.31-11.919-.422-14.2.894-3.04,1.752-5.195,3.3-6.446,5.07h0A7.206,7.206,0,0,0,33.465,169.8Z" transform="translate(-7.885 -35.918)" fill="url(#linear-gradient-3)"/>
          <path id="Path-8" data-name="Path" d="M36.291,208.515l1.1-22.563-2.155.815-.621,21.174Z" transform="translate(-8.181 -42.688)" fill="#fff" opacity="0.34"/>
          <path id="Path-9" data-name="Path" d="M35.7,181.443c.885-4.634-3.739-11.557,1.669-18.073,1.622-1.923,2.665-1.975,4.973-3.309a13.972,13.972,0,0,1,7.924-1.807s3.707-.213,5.589.663c-4.435-4.954-12.512-1.048-14.774.269-3.04,1.752-5.195,3.3-6.446,5.07h0a6.558,6.558,0,0,0-1.343,3.656C33.209,170.618,35.66,181.684,35.7,181.443Z" transform="translate(-7.879 -35.977)" fill="#fff" opacity="0.34"/>
          <path id="Path-10" data-name="Path" d="M51.09,160.6c-2.382,1.391-5.654-.723-6.163-1.645a7.169,7.169,0,0,1-.366-1.923,25.32,25.32,0,0,0-.962-5.185,2.261,2.261,0,0,0,1.548.76c2.243-.259,5.311-2.4,5.774-.644,0,.047-.176,3.707-.162,3.758C51.331,158.035,53.421,159.236,51.09,160.6Z" transform="translate(-10.227 -34.795)" fill="url(#linear-gradient-4)"/>
          <path id="Path-11" data-name="Path" d="M51.021,152.133c-2.212-.213-7.011.815-7.011.815.77,1.2.681,4.273.681,4.273l.288,1.789a4.837,4.837,0,0,0,1.428,1.367,9.337,9.337,0,0,0,2.291.885c-.088,0-2.109-3.851-.5-4.029h0a.858.858,0,0,1,.464-.194c1.2-.209,2.424-2.02,2.549-3.707Z" transform="translate(-10.321 -34.982)" fill="url(#linear-gradient-5)"/>
          <path id="Path-12" data-name="Path" d="M53.03,139.679a1.993,1.993,0,0,1,.373,1.066,26.654,26.654,0,0,1-.074,3.388,18.124,18.124,0,0,1,.3,1.993c0,1.038-1.048,6.144-3.962,6.349A6.952,6.952,0,0,1,44.2,150.1a36.659,36.659,0,0,1-2.5-3.355,21.727,21.727,0,0,1-1.779-4.634c-.278-1.692.553-5.051,1.854-5.339l1.316-.3a1.914,1.914,0,0,1,1.145-1.145c1.511-.653,2.549-.07,3.846.8,1.089.741,2.2,1.391,3.244,2.117a6.728,6.728,0,0,1,1.7,1.428Z" transform="translate(-9.377 -31.101)" fill="url(#linear-gradient-6)"/>
          <path id="Path-13" data-name="Path" d="M53.039,137.242a2.261,2.261,0,0,1-1.126,1.729,1.668,1.668,0,0,1-.964.213c-3.935-.964-4.578.885-4.926.964-.626.2-1.3-.357-1.923-.139a1.316,1.316,0,0,0-.751,1.284c0,.519.125,1.056.088,1.585,0,.194.144.653,0,.848,0,0-.464-.079-.5-.079l-.288-.626a3.328,3.328,0,0,0-.316-.718c-.25-.366-.44-.658-.723-.676a.7.7,0,0,0-.422.134c-.6.375-.553,1.3-.25,1.923a13.28,13.28,0,0,1,1.048,1.876,2.067,2.067,0,0,1,0,1.358c-.464.134-.9-.3-1.185-.711-1.334-2.039-.815-3.406-2.4-5.269a1.06,1.06,0,0,1-.3,0,2.655,2.655,0,0,1-1.645-3.128c.7-3.55,4.462-3.453,7.252-5.283.964-.632,4.147-3.55,8.8-.288C53.952,133.211,53.345,135.509,53.039,137.242Z" transform="translate(-8.585 -30.114)" fill="#222a72"/>
          <path id="Path-14" data-name="Path" d="M42.458,149.908c-.464.134-.959-.3-1.185-.711-1.343-2.03-.82-3.4-2.4-5.264a.8.8,0,0,1-.3,0h0a.436.436,0,0,1,0-.306.422.422,0,0,1,.325-.116c1.145-.055,2.78-.088,3.156,1.154a.668.668,0,0,0-.412.144,1.525,1.525,0,0,0-.25,1.928,13.529,13.529,0,0,1,1.048,1.923,2.094,2.094,0,0,1,.009,1.251Z" transform="translate(-9.078 -33.021)" fill="#151f5b"/>
          <path id="Path-15" data-name="Path" d="M61.758,158.856l9.268,9.129c.348.422.723,1.191.431,1.654l-3.911,5.768a1.228,1.228,0,0,1-1.617.464l-2.521-1.343Z" transform="translate(-14.361 -36.519)" fill="url(#linear-gradient-7)"/>
          <path id="Path-16" data-name="Path" d="M82.572,165.306l1.056.065" transform="translate(-19.099 -37.987)" fill="none" fill-rule="evenodd"/>
          <path id="Path-17" data-name="Path" d="M93.918,172.278l.547,1.928" transform="translate(-21.683 -39.575)" fill="none" fill-rule="evenodd"/>
          <path id="Path-18" data-name="Path" d="M92.8,168.33l.4,1.394" transform="translate(-21.428 -38.676)" fill="none" fill-rule="evenodd"/>
          <path id="Path-19" data-name="Path" d="M98.995,158.974a2.318,2.318,0,0,0-.9.4.342.342,0,0,0-.194.431,8.244,8.244,0,0,0,1.126,4.092,2.315,2.315,0,0,0,.223.306,1.158,1.158,0,0,0,.885.316,2.164,2.164,0,0,0,1.048-.408,1.7,1.7,0,0,0,.5-.464,2.134,2.134,0,0,0,.241-.57,5.969,5.969,0,0,0,.19-3.453c-.162-.5-.607-1.163-1.219-.964a4.716,4.716,0,0,1-.83.237,7.039,7.039,0,0,0-1.066.074Z" transform="translate(-22.584 -36.465)" fill="url(#linear-gradient-8)"/>
          <path id="Path-20" data-name="Path" d="M311.656,342.441,99.19,219.79c-5.839-3.374-10.575-12.419-10.575-20.2V29.55c0-7.785,4.736-11.368,10.575-7.994L271.9,121.263l39.756,22.952c5.847,3.369,10.575,12.414,10.575,20.2V334.452C322.212,342.237,317.481,345.815,311.656,342.441Z" transform="translate(-20.475 -4.972)" fill="#13a4d1"/>
          <path id="Path-21" data-name="Path" d="M124.535,124.834,42.515,77.493c-2.254-1.3-4.085-4.789-4.085-7.8V4.034c0-3,1.831-4.388,4.082-3.086L124.535,48.3c2.252,1.3,4.082,4.8,4.082,7.8v65.651C128.618,124.76,126.788,126.151,124.535,124.834Z" transform="translate(-9.05 -0.458)" opacity="0.57" fill="url(#linear-gradient-9)"/>
          <path id="Path-22" data-name="Path" d="M433.9,341.634,366.974,303a7.953,7.953,0,0,1-3.332-6.367V243.065c0-2.456,1.492-3.582,3.332-2.521L433.9,279.187a7.937,7.937,0,0,1,3.332,6.362v53.567C437.236,341.57,435.742,342.7,433.9,341.634Z" transform="translate(-83.087 -55.025)" fill="#13a4d1" opacity="0.57"/>
          <path id="Path-23" data-name="Path" d="M415.586,290.581l-66.929-38.638a7.953,7.953,0,0,1-3.332-6.367V192.008c0-2.449,1.492-3.577,3.332-2.516l66.929,38.643a7.937,7.937,0,0,1,3.332,6.362v53.567C418.918,290.507,417.425,291.65,415.586,290.581Z" transform="translate(-78.917 -43.403)" fill="#13a4d1" opacity="0.57"/>
          <path id="Path-24" data-name="Path" d="M304.254,174.835V344.868c0,7.785-4.731,11.368-10.575,7.994L81.228,230.2c-5.839-3.374-10.575-12.419-10.575-20.2V39.966c0-7.785,4.736-11.368,10.575-7.994L293.663,154.63C299.522,158,304.254,167.045,304.254,174.835Z" transform="translate(-16.386 -7.344)" fill="url(#linear-gradient-10)"/>
          <path id="Path-25" data-name="Path" d="M70.636,222.492s5,5.659,6.65,3.476a3.835,3.835,0,0,0,.7-4l-7.415-3.916Z" transform="translate(-16.366 -49.996)" fill="#162258" opacity="0.17"/>
          <path id="Path-26" data-name="Path" d="M45.664,187.548l4.407,9.165,15.44,12.665s3.081-.6,3.841.084-1.613,1.043-1.511,1.719,2.91,1.8,3.461,1.789,1.325,2.354-1.075,3.008c-3.068.839-4.439-.927-5.7-1.9s-2.22-1.821-2.22-1.821-15.011-9.343-16.8-11.07-6.9-9.685-6.9-9.685Z" transform="translate(-9.092 -43.051)" fill="url(#linear-gradient-11)"/>
          <path id="Path-27" data-name="Path" d="M36.916,187.093a12.851,12.851,0,0,0,1.343-.139,15.853,15.853,0,0,0,6.066-2.159,3.379,3.379,0,0,0,1.033-.9.189.189,0,0,0,0-.088,3.6,3.6,0,0,0,0-2.832A53.972,53.972,0,0,0,40.892,170.2c-.612-1.117-1.891-3.244-3.188-3.707a3.846,3.846,0,0,0-2.844.107h0a2.054,2.054,0,0,0-.83.718c-2.151,3.314-1.084,8.375-.107,12.192a23.083,23.083,0,0,0,2.994,7.585Z" transform="translate(-7.763 -38.207)" fill="url(#linear-gradient-12)"/>
          <path id="Path-28" data-name="Path" d="M304.254,174.841,70.656,39.99c0-7.785,4.736-11.368,10.575-7.994l212.434,122.64C299.522,158.005,304.254,167.051,304.254,174.841Z" transform="translate(-16.387 -7.349)" fill="url(#linear-gradient-13)"/>
          <path id="Path-29" data-name="Path" d="M310.859,233.124V399.63a10.992,10.992,0,0,1-.741,4.217c-.181-.088-.362-.186-.547-.292L122.253,295.419l-8.643-4.986c4.661-9.574,16.845-28.138,39.955-24.334,30.867,5.1,58.465,35.219,76.262-.362S310.859,233.124,310.859,233.124Z" transform="translate(-26.166 -53.413)" opacity="0.44" fill="url(#linear-gradient-14)"/>
          <path id="Path-30" data-name="Path" d="M292.964,210.482V321.916c0,5.1-3.447,7.446-7.7,5.233L130.525,246.762c-4.258-2.207-7.706-8.138-7.706-13.238v-38.4a6.9,6.9,0,0,0-3.916-6.072L87.229,172.748a3.777,3.777,0,0,1-2.148-3.339v-5.117a3.073,3.073,0,0,1,1.738-2.693,3.8,3.8,0,0,1,3.46.006l30.655,15.776a1.394,1.394,0,0,0,1.273,0,1.127,1.127,0,0,0,.632-.992V122.131c0-5.1,3.447-7.45,7.706-5.238l154.715,80.371C289.514,199.454,292.964,205.382,292.964,210.482Z" transform="translate(-19.67 -3.394)" fill="url(#linear-gradient-15)"/>
          <path id="Path-31" data-name="Path" d="M295.329,212.711V324.147c0,5.1-3.447,7.446-7.7,5.233L132.9,248.992c-4.258-2.207-7.706-8.138-7.706-13.238v-38.4a6.9,6.9,0,0,0-3.916-6.072l-31.682-16.3a3.777,3.777,0,0,1-2.148-3.339v-5.1a3.071,3.071,0,0,1,1.723-2.693,3.8,3.8,0,0,1,3.456-.011l30.659,15.78a1.394,1.394,0,0,0,1.273,0,1.127,1.127,0,0,0,.632-.992V124.339c0-5.1,3.447-7.45,7.706-5.238l154.735,80.372C291.88,201.693,295.329,207.611,295.329,212.711Z" transform="translate(-20.209 -3.896)" fill="#13a4d1"/>
          <path id="Path-32" data-name="Path" d="M170.436,233.636l47.884,26.975,4.305,2.512v12.4l-50.965-27.89.111,43.849,52.272,29.982v-17.3L278.817,335.8V267.51l-49.033-27.253-6.886-4.407-.662-19.305L173.7,189.084Z" transform="translate(-39.102 -43.401)" fill="#162258" opacity="0.17"/>
          <path id="Path-33" data-name="Path" d="M335.792,332.67a3.341,3.341,0,0,0,1.771,4.171c2.817,1.391,8.369,4.977,8.369,4.977l12.776,10.344h2.686l5.617-2.5.834-7.845L344.4,335.572Z" transform="translate(-76.702 -76.089)" fill="#162258" opacity="0.17"/>
          <path id="Path-34" data-name="Path" d="M344.82,331.473s-1.349-2.4-2.41-2.641a7.1,7.1,0,0,1-2.387-1.418s-.77.658-.343,1.247c0,0-2.748-.584-3.888,0s-1.2.77-1.2.77-.4.218,0,.38.51.77.51.77-.162.316.422.894a7.8,7.8,0,0,0,1.808,1.451l3.244,1.089c1.307.292,7.7,4.291,5.626-1.358C346.168,332.479,344.866,331.677,344.82,331.473Z" transform="translate(-76.434 -74.892)" fill="url(#linear-gradient-16)"/>
          <path id="Path-35" data-name="Path" d="M405.375,456.048s.982,3.652.316,4.305-9.894-.333-11.242-1.928-3.846-5.1,0-6.1S400.064,454.6,405.375,456.048Z" transform="translate(-89.634 -103.287)" fill="#439693"/>
          <path id="Path-36" data-name="Path" d="M369.57,463.846s.978,3.634.325,4.3-9.9-.329-11.242-1.923-3.846-5.1,0-6.1S364.283,462.382,369.57,463.846Z" transform="translate(-81.485 -105.061)" fill="#439693"/>
          <path id="Path-37" data-name="Path" d="M376.932,412.825l8.573-10.3s.158,6.874,1.766,11.437,8.647,23.75,8.647,23.75h3.517l-2.785-25.209s-1.779-14.078,2.072-22.155,1.33-18.74,1.33-18.74L372.79,382.166l-6.024,29.028s-.589,3.957,3.077,13.194-1.478,18.416-1.185,19.143,3.332,1.027,3.332,1.027S375.541,417.557,376.932,412.825Z" transform="translate(-83.79 -84.954)" fill="#0e3585"/>
          <path id="Path-38" data-name="Path" d="M386.147,313.058s-9.481,2.224-12.132,3.985-4.582,1.353-7.215,7.493a50.346,50.346,0,0,1-5.172,9.523l-14.62-6.487-3.629,3.652,10.283,7.359a11.085,11.085,0,0,0,12.975,2.938l1.056-.464s.927,9.681.927,12.859c0,3.707-.927,14.62-.927,14.62s12.313,1.594,17.2-1.177a74.517,74.517,0,0,1,10.946-5.136V319.661a5.361,5.361,0,0,0-1.854-4.059A9.762,9.762,0,0,0,386.147,313.058Z" transform="translate(-78.474 -71.607)" fill="#f0f9fd"/>
          <path id="Path-39" data-name="Path" d="M382.18,339.567l-7.642,7.7s.7,5.767.9,11.465a97.447,97.447,0,0,1-.9,16.016s7.79.77,10.25.464l.13-34.491a1.59,1.59,0,0,0-1.575-1.608h-.023A1.64,1.64,0,0,0,382.18,339.567Z" transform="translate(-85.568 -77.554)" opacity="0.44" fill="url(#linear-gradient-17)"/>
          <path id="Path-40" data-name="Path" d="M391.025,408.511s8.188-8.911,8.684-10.621c0,0-1.854,13.589,0,20.987s5.246,24.82,5.246,24.82H401.47l-8.658-23.735S390.64,412.738,391.025,408.511Z" transform="translate(-89.311 -90.937)" fill="#071b3d"/>
          <path id="Path-41" data-name="Path" d="M383.014,385.756s-11.9,27.906-11.284,30.3-.77,30.835-.77,30.835l-2.317-.213s-2.252-23.564-1.853-32.323,4.171-21.317,6.024-29.028Z" transform="translate(-83.793 -88.077)" fill="#071b3d"/>
          <path id="Path-42" data-name="Path" d="M385.73,310.578l-.116-4.634s-3.744.047-4.171-.4-.83-4.407-.77-5.135.77-2.4.83-3.332-.621-1.391-.584-2.164a36.151,36.151,0,0,1,1.325-4.31s14.4.542,14.62,3.434-2.317,10.088-2.317,10.088l-.158,4.078S391.772,312.973,385.73,310.578Z" transform="translate(-86.963 -66.513)" fill="url(#linear-gradient-18)"/>
          <path id="Path-43" data-name="Path" d="M385.06,292.371a14.033,14.033,0,0,1-2.164-2.966,4.522,4.522,0,0,1,.362-4.171,6.608,6.608,0,0,1,2.433-2.072,12.591,12.591,0,0,1,10.376-.676l-.57.329a27.509,27.509,0,0,1,6.307,4.472h-1.912l.876,1.812c-.51-.333-1.185.283-1.247.89a9.526,9.526,0,0,0,.316,1.807,4.885,4.885,0,0,1-.361,2.062q-.653,2.03-1.418,3.995a1.316,1.316,0,0,0-1.436.711c-.292.487-.427,1.071-.711,1.538a2.78,2.78,0,0,1-4.773.092c-.162-.269-.316-.593-.621-.632s-.431.055-.626,0a1.065,1.065,0,0,1-.537-.306c-1.093-.927-2.73-1.951-3.077-3.424C385.936,294.527,385.986,293.563,385.06,292.371Z" transform="translate(-87.391 -64.48)" fill="url(#linear-gradient-19)"/>
          <path id="Path-44" data-name="Path" d="M385.351,301.287a12.048,12.048,0,0,0,1.432-2.558,2.317,2.317,0,0,1,.978,1.455,6.369,6.369,0,0,1,.116,1.8,1.349,1.349,0,0,0,.07.663,1.106,1.106,0,0,0,.9.561,7.167,7.167,0,0,0,1.093,0,9.3,9.3,0,0,1,2.118.574,2.627,2.627,0,0,0,2.133-.074,3.123,3.123,0,0,0,.927-1.061c.348-.533.686-1.071,1.015-1.627a21.434,21.434,0,0,0,1.15-2.252.649.649,0,0,1,.26.329,3.842,3.842,0,0,0-.77-3.425,6.433,6.433,0,0,0-3-1.975,19.214,19.214,0,0,0-3.582-.7v.537a24.469,24.469,0,0,1-4.171-1.418,8.31,8.31,0,0,1-3.378-2.748,3.837,3.837,0,0,0,.626,2.844,11.642,11.642,0,0,0,1.538,1.771,2.169,2.169,0,0,1,.514,1.668C385.4,297.537,385.4,299.432,385.351,301.287Z" transform="translate(-87.399 -66.23)" fill="url(#linear-gradient-20)"/>
          <path id="Path-45" data-name="Path" d="M387.471,302.794s.857-.553,1,.13.079,1.97-.5,2.248a.927.927,0,0,1-.927,0,5.056,5.056,0,0,1,.427-2.377Z" transform="translate(-88.412 -69.239)" fill="url(#linear-gradient-21)"/>
          <path id="Path-46" data-name="Path" d="M395.6,312.33l1.284.464s.153,2.827-2.345,3.6a14.19,14.19,0,0,1-8.735-.524l1.131-.348S394.309,316.116,395.6,312.33Z" transform="translate(-88.132 -71.459)" opacity="0.44" fill="url(#linear-gradient-22)"/>
          <ellipse id="Oval-3" data-name="Oval" cx="1.037" cy="1.798" rx="1.037" ry="1.798" transform="translate(59.706 30.91) rotate(-30.178)" fill="#fff"/>
          <ellipse id="Oval-4" data-name="Oval" cx="1.043" cy="1.807" rx="1.043" ry="1.807" transform="translate(63.942 32.728) rotate(-30.31)" fill="#fff"/>
          <ellipse id="Oval-5" data-name="Oval" cx="1.043" cy="1.807" rx="1.043" ry="1.807" transform="translate(67.648 34.87) rotate(-30.31)" fill="#fff"/>
          <path id="Path-47" data-name="Path" d="M219.143,217.954v44.033l-51.095-29.154V188.8l13.81,7.883,1.048.6,2.37,1.353.922.524.978.561,1.048.6Z" transform="translate(-38.558 -43.335)" fill="#fff" opacity="0.82"/>
          <path id="Path-48" data-name="Path" d="M218.963,262.279l-51.095-29.162V189.084l51.095,29.154Z" transform="translate(-38.517 -43.401)" opacity="0.41" fill="url(#linear-gradient-23)"/>
          <path id="Path-49" data-name="Path" d="M172.02,222.16l14.18-3.772,9.87,17.767h1.835l-3.1-6.057,9.694-.941,12.113,17.9.45,18.082L172.2,238.982Z" transform="translate(-39.463 -50.071)" opacity="0.41" fill="url(#linear-gradient-23)"/>
          <path id="Path-50" data-name="Path" d="M192.1,200.359l-1.052-.6-1.228-8.277a1.905,1.905,0,1,0-3.772.542l.733,5.316-1.048-.6-.632-4.574a2.864,2.864,0,0,1,5.667-.807Z" transform="translate(-42.438 -43.382)" fill="url(#linear-gradient-25)"/>
          <path id="Path-51" data-name="Path" d="M191.86,211.778a2.067,2.067,0,0,1-1.779,2.358,2.431,2.431,0,0,1-.259,0,2.062,2.062,0,0,1-2.039-1.779l-1.854-13.374,1.048.6,1.752,12.647a1.106,1.106,0,1,0,2.183-.333l-1.64-10.658a.435.435,0,0,1,.079-.333.474.474,0,0,1,.869.186l.051.338Z" transform="translate(-42.629 -45.654)" fill="url(#linear-gradient-26)"/>
          <path id="Path-52" data-name="Path" d="M292.555,284.212v68.412l-51.091-29.162V255.054l13.81,7.883,1.048.6,2.37,1.353.927.524.973.561,1.052.6Z" transform="translate(-55.273 -58.419)" fill="#fff" opacity="0.82"/>
          <path id="Path-53" data-name="Path" d="M292.375,352.691l-51.091-29.162V255.345l51.091,29.162Z" transform="translate(-55.232 -58.486)" opacity="0.41" fill="url(#linear-gradient-23)"/>
          <path id="Path-54" data-name="Path" d="M219.053,294.58v44.033l-51.095-29.154V265.422l13.814,7.883,1.043.6,2.37,1.353.922.524.978.561,1.052.6Z" transform="translate(-38.538 -60.78)" fill="#fff" opacity="0.82"/>
          <path id="Path-55" data-name="Path" d="M218.873,338.9l-51.095-29.162V265.71l51.095,29.154Z" transform="translate(-38.497 -60.845)" opacity="0.41" fill="url(#linear-gradient-23)"/>
          <path id="Path-56" data-name="Path" d="M171.93,298.786l14.18-3.772,9.87,17.766h1.84l-3.1-6.057,9.689-.941,12.113,17.9.45,18.082-44.867-26.159Z" transform="translate(-39.442 -67.516)" opacity="0.41" fill="url(#linear-gradient-23)"/>
          <path id="Path-57" data-name="Path" d="M297.963,107.357h-5.2l.028-3.257h5.195Z" transform="translate(-66.951 -24.053)" fill="#0b1928"/>
          <path id="Path-58" data-name="Path" d="M297.239,106.832c1,.6.959,1.566-.074,2.127a4.045,4.045,0,0,1-3.675-.042c-.992-.593-.927-1.562.079-2.127A4.036,4.036,0,0,1,297.239,106.832Z" transform="translate(-66.955 -24.57)" fill="#0b1928"/>
          <path id="Path-59" data-name="Path" d="M299.191,99.442c2.7,1.627,2.607,4.213-.209,5.783a11.013,11.013,0,0,1-10-.1c-2.7-1.627-2.607-4.221.209-5.788A11.013,11.013,0,0,1,299.191,99.442Z" transform="translate(-65.644 -22.708)" fill="#204660"/>
          <path id="Path-60" data-name="Path" d="M288.7,103.885a5.35,5.35,0,0,1-1.247-.987,3.649,3.649,0,0,1-.389-.464,3.709,3.709,0,0,1-.38-.621,3.785,3.785,0,0,1-.213-.632,3.142,3.142,0,0,1-.047-1.121,3.671,3.671,0,0,1,.153-.632,3.95,3.95,0,0,1,.639-1.066,5.343,5.343,0,0,1,.982-.927,8.23,8.23,0,0,1,3.193-1.367,11.929,11.929,0,0,1,2.183-.283h1.089a7.348,7.348,0,0,1,1.061.1s.464.07,1.027.2a9.013,9.013,0,0,1,1.9.676,5.188,5.188,0,0,1,.566.316.814.814,0,0,0-.148-.055,1.185,1.185,0,0,0-.778.19,9.306,9.306,0,0,0-8.439-.084c-2.37,1.307-2.461,3.522-.181,4.894a9.358,9.358,0,0,0,8.444.079c2.377-1.312,2.456-3.517.176-4.889a1.185,1.185,0,0,1,.778-.19.815.815,0,0,1,.149.055,4.723,4.723,0,0,1,.532.375,4.392,4.392,0,0,1,.6.533,4.516,4.516,0,0,1,.783,1.121,3.267,3.267,0,0,1,.316,1.14,2.56,2.56,0,0,1,0,.533,2.961,2.961,0,0,1-.125.632,3.458,3.458,0,0,1-.273.632,4.871,4.871,0,0,1-.333.533,5.1,5.1,0,0,1-.973.927,6.78,6.78,0,0,1-1.525.885,9.666,9.666,0,0,1-1.714.533,11.11,11.11,0,0,1-7.8-1.044Z" transform="translate(-65.501 -22.16)" fill="#20567a"/>
          <path id="Path-61" data-name="Path" d="M288.689,101.232a5.848,5.848,0,0,1-1.251-.987,4.786,4.786,0,0,1-.778-1.093,3.406,3.406,0,0,1-.213-.632A2.94,2.94,0,0,1,286.4,97.4a3.3,3.3,0,0,1,.158-.632,3.54,3.54,0,0,1,.316-.632,3.678,3.678,0,0,1,.4-.533,5.724,5.724,0,0,1,1.061-.973,8.805,8.805,0,0,1,1.3-.711c.194-.079.464-.181.639-.246a7.81,7.81,0,0,1,1.066-.316,11.875,11.875,0,0,1,2.178-.283h1.066a10.153,10.153,0,0,1,1.061.107,8.834,8.834,0,0,1,1.033.2,8.058,8.058,0,0,1,.973.288,8.957,8.957,0,0,1,.927.4c.171.084.385.209.561.316a.464.464,0,0,0-.148-.055,1.232,1.232,0,0,0-.783.186,9.3,9.3,0,0,0-8.439-.084c-2.377,1.307-2.456,3.517-.176,4.889a9.386,9.386,0,0,0,8.443.088c2.377-1.3,2.456-3.517.171-4.894a1.233,1.233,0,0,1,.783-.186.464.464,0,0,1,.149.055,6.091,6.091,0,0,1,.533.371,5.066,5.066,0,0,1,.607.529,4.173,4.173,0,0,1,.807,1.117,3.323,3.323,0,0,1,.316,1.15,2.569,2.569,0,0,1,0,.533,3.345,3.345,0,0,1-.125.632,4.48,4.48,0,0,1-.269.632,5.759,5.759,0,0,1-.338.533,5.1,5.1,0,0,1-.973.927,6.952,6.952,0,0,1-1.53.88,9.456,9.456,0,0,1-1.7.533,10.824,10.824,0,0,1-7.765-.979Z" transform="translate(-65.494 -21.542)" fill="#20567a"/>
          <path id="Path-62" data-name="Path" d="M288.688,98.618a5.947,5.947,0,0,1-1.247-.982,5.469,5.469,0,0,1-.4-.464,3.712,3.712,0,0,1-.366-.632,3.437,3.437,0,0,1-.222-.632,2.684,2.684,0,0,1-.074-.639,3.3,3.3,0,0,1,.028-.464,3.034,3.034,0,0,1,.158-.632,3.679,3.679,0,0,1,.316-.632,3.53,3.53,0,0,1,.371-.533,5.877,5.877,0,0,1,1.066-.969,8.065,8.065,0,0,1,1.3-.711,9.967,9.967,0,0,1,1.7-.533,11.966,11.966,0,0,1,2.187-.273h1.071a9.145,9.145,0,0,1,1.061.107s.464.065,1.033.194a9.1,9.1,0,0,1,.978.292,8.309,8.309,0,0,1,.927.389,6.28,6.28,0,0,1,.574.316.589.589,0,0,0-.149-.06,1.233,1.233,0,0,0-.783.194,9.323,9.323,0,0,0-8.439-.088c-2.377,1.3-2.456,3.517-.176,4.889a9.372,9.372,0,0,0,8.444.084c2.377-1.307,2.456-3.517.171-4.884a1.233,1.233,0,0,1,.783-.194.588.588,0,0,1,.148.06,5.663,5.663,0,0,1,.533.366,5.134,5.134,0,0,1,.609.529,3.926,3.926,0,0,1,.77,1.112,3.2,3.2,0,0,1,.316,1.145,2.055,2.055,0,0,1,0,.533,2.958,2.958,0,0,1-.125.632,3.786,3.786,0,0,1-.6,1.15,5.156,5.156,0,0,1-.978.954,7.23,7.23,0,0,1-1.525.876,9.267,9.267,0,0,1-1.71.533,11.119,11.119,0,0,1-7.76-1.035Z" transform="translate(-65.499 -20.962)" fill="#20567a"/>
          <path id="Path-63" data-name="Path" d="M288.678,95.969a5.688,5.688,0,0,1-1.247-.982,4.644,4.644,0,0,1-.39-.464,3.787,3.787,0,0,1-.371-.632,2.82,2.82,0,0,1-.218-.639,2.608,2.608,0,0,1-.074-.632,2.8,2.8,0,0,1,.028-.464,3.347,3.347,0,0,1,.158-.632,3.68,3.68,0,0,1,.316-.632,4.8,4.8,0,0,1,.395-.533,5.423,5.423,0,0,1,1.061-.927,7.952,7.952,0,0,1,1.3-.723,9.785,9.785,0,0,1,1.7-.584,11.932,11.932,0,0,1,2.183-.283h1.061a6.857,6.857,0,0,1,1.066.1c.343.055.69.116,1.027.2s.653.176.978.288a7.358,7.358,0,0,1,.927.4c.194.092.385.2.57.311a.8.8,0,0,0-.149-.051,1.229,1.229,0,0,0-.783.186,9.3,9.3,0,0,0-8.439-.084c-2.377,1.307-2.46,3.522-.176,4.894a9.348,9.348,0,0,0,8.439.079c2.377-1.312,2.456-3.517.176-4.889A1.229,1.229,0,0,1,299,89.09a.8.8,0,0,1,.148.051,6.712,6.712,0,0,1,.927.711,4.67,4.67,0,0,1,.746.852,3.476,3.476,0,0,1,.533,1.391,3.17,3.17,0,0,1-.171,1.594,4.171,4.171,0,0,1-.959,1.428,5.3,5.3,0,0,1-.533.487c-.181.134-.385.269-.561.39a8.687,8.687,0,0,1-1.177.584,10.658,10.658,0,0,1-3.128.711,13.685,13.685,0,0,1-1.632,0,11.439,11.439,0,0,1-1.594-.194c-.292-.06-.668-.158-.954-.237-.153-.042-.361-.107-.533-.167a8.379,8.379,0,0,1-1.437-.722Z" transform="translate(-65.498 -20.352)" fill="#20567a"/>
          <path id="Path-64" data-name="Path" d="M298.979,103.163a11.014,11.014,0,0,1-10-.1,3.66,3.66,0,0,1-1.951-2.479c-.162,1.135.464,2.317,1.951,3.193a11,11,0,0,0,10,.1c1.594-.89,2.317-2.127,2.127-3.3a3.682,3.682,0,0,1-2.127,2.591Z" transform="translate(-65.641 -23.25)" fill="#204660"/>
          <path id="Path-65" data-name="Path" d="M298.979,100.473a10.943,10.943,0,0,1-10-.092,3.76,3.76,0,0,1-1.951-2.489c-.162,1.131.464,2.291,1.951,3.188a11.013,11.013,0,0,0,10,.1c1.594-.89,2.317-2.127,2.127-3.3A3.687,3.687,0,0,1,298.979,100.473Z" transform="translate(-65.641 -22.637)" fill="#204660"/>
          <path id="Path-66" data-name="Path" d="M298.979,97.893a10.942,10.942,0,0,1-10-.1,3.734,3.734,0,0,1-1.951-2.484c-.162,1.135.464,2.317,1.951,3.193a11.013,11.013,0,0,0,10,.1c1.594-.894,2.317-2.127,2.127-3.3a3.687,3.687,0,0,1-2.127,2.6Z" transform="translate(-65.641 -22.049)" fill="#204660"/>
          <path id="Path-67" data-name="Path" d="M298.97,95.33a10.22,10.22,0,0,1-4.926.982,10.482,10.482,0,0,1-5.1-1.061,3.744,3.744,0,0,1-1.953-2.483c-.162,1.126.464,2.291,1.955,3.188a11.027,11.027,0,0,0,10,.1c1.594-.9,2.317-2.127,2.127-3.3A3.583,3.583,0,0,1,298.97,95.33Z" transform="translate(-65.632 -21.47)" fill="#204660"/>
          <g id="Group" transform="translate(221.093 66.404)" opacity="0.76">
            <path id="Path-68" data-name="Path" d="M13.078,1.338c2.78,1.7,2.7,4.393-.227,6.024A11.353,11.353,0,0,1,2.495,7.256c-2.8-1.7-2.707-4.388.213-6.024A11.393,11.393,0,0,1,13.078,1.338Z" transform="translate(-0.453 -0.036)" fill="#418d96"/>
          </g>
          <path id="Path-69" data-name="Path" d="M307.255,60.16A15.347,15.347,0,0,0,291.5,45.6h-.118a15.351,15.351,0,0,0-15.756,14.56c-.348,4.2-.39,7.933,6.488,16.034a8.928,8.928,0,0,1,2.03,5.445c.088,1.061,5.348,1.8,7.3,1.951,1.955-.144,7.22-.852,7.3-1.951a8.79,8.79,0,0,1,2.03-5.445C307.7,68.093,307.608,64.363,307.255,60.16Z" transform="translate(-63.023 -10.735)" fill="#83d4dd" opacity="0.5"/>
          <path id="Path-70" data-name="Path" d="M287.013,61.861c-1.01,3.013-3.652,4.838-5.895,4.082s-3.244-3.8-2.224-6.826,3.652-4.842,5.9-4.087S288.018,58.83,287.013,61.861Z" transform="translate(-63.703 -12.843)" fill="#fff" opacity="0.4"/>
          <path id="Path-71" data-name="Path" d="M292.564,53.333a1.952,1.952,0,0,1-.288,2.66,1.874,1.874,0,0,1-2.442-1.033,1.917,1.917,0,0,1,.288-2.633,1.9,1.9,0,0,1,2.442,1.006Z" transform="translate(-66.2 -12.235)" fill="#fff" opacity="0.4"/>
          <path id="Path-72" data-name="Path" d="M302.332,66.647l-.047.032V66.6a2.9,2.9,0,0,0-1,1.066,1.8,1.8,0,0,1-.653.741.579.579,0,0,1-.653,0,.927.927,0,0,0-.992.065,2.808,2.808,0,0,0-.978,1.066,1.9,1.9,0,0,1-.653.741.593.593,0,0,1-.64,0,.89.89,0,0,0-.982.06,2.832,2.832,0,0,0-.987,1.066,1.8,1.8,0,0,1-.632.737.579.579,0,0,1-.653,0,.927.927,0,0,0-.987.06,2.86,2.86,0,0,0-.983,1.066,1.854,1.854,0,0,1-.653.732.553.553,0,0,1-.649,0,.927.927,0,0,0-.992.07v.065a.621.621,0,0,0-.074.632l4.786,13.016v2.734h.533V87.662h0v-.046h0a.982.982,0,0,0-.047-.231l-4.713-12.767a.553.553,0,0,1,.162.07.9.9,0,0,0,.992-.074,2.78,2.78,0,0,0,.983-1.066,1.792,1.792,0,0,1,.644-.711.566.566,0,0,1,.632,0,.9.9,0,0,0,.987-.07,2.781,2.781,0,0,0,.973-1.066,1.853,1.853,0,0,1,.658-.737.553.553,0,0,1,.649,0,.9.9,0,0,0,.987-.07,2.822,2.822,0,0,0,.982-1.066,1.854,1.854,0,0,1,.653-.718.579.579,0,0,1,.663,0,.927.927,0,0,0,.982-.065,2.74,2.74,0,0,0,.982-1.061,3.7,3.7,0,0,1,.237-.357l-4.62,18.232a.955.955,0,0,0-.037.4v4.4h.533V85.669l4.687-18.437C302.508,66.837,302.466,66.6,302.332,66.647Z" transform="translate(-66.111 -15.516)" fill="#204660"/>
          <circle id="Oval-6" data-name="Oval" cx="19.287" cy="19.287" r="19.287" transform="translate(210.372 31.797)" opacity="0.75" fill="url(#radial-gradient)"/>
          <path id="Path-73" data-name="Path" d="M290.866,307.51l-28.81-16.58v-1.868l28.81,16.58Z" transform="translate(-59.96 -66.161)" opacity="0.41" fill="url(#linear-gradient-30)"/>
          <path id="Path-74" data-name="Path" d="M287.5,311.426,247.278,288.2v-1.868L287.5,309.564Z" transform="translate(-56.596 -65.541)" opacity="0.41" fill="url(#linear-gradient-31)"/>
          <path id="Path-75" data-name="Path" d="M287.5,317.3,247.278,294.08v-1.868L287.5,315.44Z" transform="translate(-56.596 -66.878)" opacity="0.41" fill="url(#linear-gradient-31)"/>
          <path id="Path-76" data-name="Path" d="M287.5,323.175l-40.223-23.221v-1.868L287.5,321.314Z" transform="translate(-56.596 -68.216)" opacity="0.41" fill="url(#linear-gradient-31)"/>
          <path id="Path-77" data-name="Path" d="M287.5,329.049l-40.223-23.221V303.96L287.5,327.188Z" transform="translate(-56.596 -69.553)" opacity="0.41" fill="url(#linear-gradient-31)"/>
          <path id="Path-78" data-name="Path" d="M287.5,335.134l-40.223-23.221v-1.868L287.5,333.266Z" transform="translate(-56.596 -70.938)" opacity="0.41" fill="url(#linear-gradient-35)"/>
          <path id="Path-79" data-name="Path" d="M287.5,341.216l-40.223-23.228v-1.863L287.5,339.346Z" transform="translate(-56.596 -72.323)" opacity="0.41" fill="url(#linear-gradient-35)"/>
          <path id="Path-80" data-name="Path" d="M287.5,347.295l-40.223-23.221v-1.868L287.5,345.434Z" transform="translate(-56.596 -73.707)" opacity="0.41" fill="url(#linear-gradient-35)"/>
          <path id="Path-81" data-name="Path" d="M287.5,353.379l-40.223-23.228V328.29L287.5,351.511Z" transform="translate(-56.596 -75.092)" opacity="0.41" fill="url(#linear-gradient-38)"/>
          <path id="Path-82" data-name="Path" d="M267.39,347.848l-20.112-11.614v-1.868L267.39,345.98Z" transform="translate(-56.596 -76.475)" opacity="0.41" fill="url(#linear-gradient-39)"/>
        </g>
      </g>
    </g>
    <g id="Group_2779" data-name="Group 2779" transform="translate(499.499 2638.293)">
      <g id="Group_2778" data-name="Group 2778" transform="translate(0 0)">
        <g id="Group_2754" data-name="Group 2754" transform="translate(24.046 22.751)">
          <path id="Path_4599" data-name="Path 4599" d="M191.94,262.18a11.913,11.913,0,0,1,4.037,4.011l-1.537,1.04a6.78,6.78,0,0,0-2.365-2.37c-2.1-1.214-3.634-.215-3.644,2.117a7.808,7.808,0,0,0,3.531,6.321,2.562,2.562,0,0,0,2.765.222l1.543,2.9c-1.106.591-2.607.464-4.368-.553a12.878,12.878,0,0,1-6.07-10.392C185.841,261.713,188.379,260.125,191.94,262.18Z" transform="translate(-185.832 -261.274)" fill="#fff"/>
        </g>
        <g id="Group_2755" data-name="Group 2755" transform="translate(35.136 31.361)">
          <path id="Path_4600" data-name="Path 4600" d="M237.242,298.238l2.335,1.349-.029,10.246-2.335-1.349v-1.231c-.627.623-1.752.426-2.786-.171-2.461-1.422-4.024-4.7-4.016-7.655s1.585-4.424,4.046-3a7.247,7.247,0,0,1,2.778,3.062Zm-2.2,6.653c1.23.711,2.124.079,2.129-1.561a4.828,4.828,0,0,0-2.113-4.013c-1.285-.742-2.212-.088-2.219,1.511a4.876,4.876,0,0,0,2.2,4.063" transform="translate(-230.411 -295.877)" fill="#fff"/>
        </g>
        <g id="Group_2756" data-name="Group 2756" transform="translate(45.498 35.782)">
          <path id="Path_4601" data-name="Path 4601" d="M277.653,316.648l-.009,3.051c-2.11-1.218-3.149-.711-3.156,1.778l-.011,4.011-2.437-1.407.029-10.446,2.4,1.386-.005,2.006C274.721,316.316,275.653,315.493,277.653,316.648Z" transform="translate(-272.04 -313.635)" fill="#fff"/>
        </g>
        <g id="Group_2757" data-name="Group 2757" transform="translate(52.35 36.495)">
          <path id="Path_4602" data-name="Path 4602" d="M304.674,322.459a9.213,9.213,0,0,1,4.052,7.677c-.008,2.95-1.585,4.424-4.046,3a7.378,7.378,0,0,1-2.849-3.081v1.23l-2.266-1.308L299.6,316.5l2.389,1.379-.013,4.385A2.432,2.432,0,0,1,304.674,322.459Zm-.593,7.786c1.284.741,2.212.111,2.219-1.509a4.909,4.909,0,0,0-2.2-4.065c-1.23-.711-2.126-.037-2.133,1.562a4.8,4.8,0,0,0,2.115,4.011" transform="translate(-299.565 -316.495)" fill="#fff"/>
        </g>
        <g id="Group_2758" data-name="Group 2758" transform="translate(62.535 47.18)">
          <path id="Path_4603" data-name="Path 4603" d="M347.345,361.806l2.335,1.349-.029,10.246-2.335-1.349V370.82c-.627.623-1.752.426-2.786-.171-2.461-1.422-4.024-4.7-4.016-7.655s1.585-4.424,4.046-3a7.246,7.246,0,0,1,2.778,3.062Zm-2.2,6.653c1.23.711,2.125.079,2.129-1.561a4.828,4.828,0,0,0-2.113-4.012c-1.285-.742-2.212-.089-2.219,1.511a4.877,4.877,0,0,0,2.2,4.063" transform="translate(-340.514 -359.445)" fill="#fff"/>
        </g>
        <g id="Group_2759" data-name="Group 2759" transform="translate(72.867 51.585)">
          <path id="Path_4604" data-name="Path 4604" d="M387.325,379.967c2.4,1.386,3.233,3.645,3.225,6.509l-.017,6.017-2.441-1.407.016-5.662c0-1.526-.338-2.539-1.576-3.254-1.217-.7-2.038-.047-2.043,1.541L384.472,389l-2.437-1.407.03-10.446,2.382,1.375,0,1.4C385.178,379.189,386.215,379.327,387.325,379.967Z" transform="translate(-382.035 -377.143)" fill="#fff"/>
        </g>
        <g id="Group_2760" data-name="Group 2760" transform="translate(82.493 57.174)">
          <path id="Path_4605" data-name="Path 4605" d="M423.105,400.967l-.029,10.414-2.37-1.368.029-10.414Z" transform="translate(-420.706 -399.599)" fill="#fff"/>
        </g>
        <g id="Group_2761" data-name="Group 2761" transform="translate(82.526 54.421)">
          <path id="Path_4606" data-name="Path 4606" d="M422.028,388.7a2.631,2.631,0,0,1,1.185,2.059c0,.736-.541,1.043-1.2.665a2.62,2.62,0,0,1-1.173-2.033C420.849,388.632,421.385,388.324,422.028,388.7Z" transform="translate(-420.844 -388.538)" fill="#fff"/>
        </g>
        <g id="Group_2762" data-name="Group 2762" transform="translate(85.829 60.916)">
          <path id="Path_4607" data-name="Path 4607" d="M438.888,415.319a10.239,10.239,0,0,1,4.764,8.089c-.009,2.971-2.119,4.113-4.794,2.569a10.234,10.234,0,0,1-4.747-8.077C434.12,414.924,436.23,413.784,438.888,415.319Zm-.023,8.115c1.338.773,2.339.182,2.343-1.438a5.062,5.062,0,0,0-2.328-4.136c-1.338-.773-2.34-.158-2.345,1.439a5.034,5.034,0,0,0,2.329,4.135" transform="translate(-434.111 -414.637)" fill="#fff"/>
        </g>
        <g id="Group_2763" data-name="Group 2763" transform="translate(95.375 61.312)">
          <path id="Path_4608" data-name="Path 4608" d="M474.344,417.314v.444l-.711-.409-.005,1.951-.45-.26.005-1.951-.707-.408v-.444Z" transform="translate(-472.476 -416.236)" fill="#fff"/>
        </g>
        <g id="Group_2764" data-name="Group 2764" transform="translate(97.509 62.549)">
          <path id="Path_4609" data-name="Path 4609" d="M483.244,422.464l-.007,2.4-.451-.261,0-1.515a2.6,2.6,0,0,1-.19.223l-.457.481-.454-1.01c-.106-.237-.183-.427-.186-.437l0,1.515-.45-.259.006-2.4.39.224.326.722c.122.266.362.81.375.838l.378-.4.33-.347Z" transform="translate(-481.048 -421.201)" fill="#fff"/>
        </g>
        <g id="Group_2765" data-name="Group 2765" transform="translate(8.203 32.925)">
          <path id="Path_4610" data-name="Path 4610" d="M123.236,302.291a2.49,2.49,0,0,1,1.044,2.117c0,.887-.435,1.264-1.053.906a2.485,2.485,0,0,1-1.046-2.118C122.184,302.311,122.615,301.933,123.236,302.291Zm-.007,2.481c.316.182.481-.121.483-.692a1.422,1.422,0,0,0-.474-1.245c-.321-.186-.487.117-.489.687a1.422,1.422,0,0,0,.484,1.25" transform="translate(-122.18 -302.157)" fill="#fff"/>
        </g>
        <g id="Group_2766" data-name="Group 2766" transform="translate(12.655 35.496)">
          <path id="Path_4611" data-name="Path 4611" d="M141.119,312.616a2.489,2.489,0,0,1,1.043,2.117c0,.887-.435,1.264-1.052.907a2.487,2.487,0,0,1-1.048-2.119C140.063,312.635,140.495,312.259,141.119,312.616Zm-.007,2.481c.316.182.481-.121.483-.692a1.422,1.422,0,0,0-.474-1.245c-.321-.186-.488.117-.489.687a1.422,1.422,0,0,0,.484,1.25" transform="translate(-140.061 -312.483)" fill="#fff"/>
        </g>
        <g id="Group_2767" data-name="Group 2767" transform="translate(15.05 36.405)">
          <path id="Path_4612" data-name="Path 4612" d="M151.7,317.292v.4l-1.12,1.989-.593-.342,1.082-1.847-1.384-.8v-.553Z" transform="translate(-149.687 -316.135)" fill="#fff"/>
        </g>
        <g id="Group_2772" data-name="Group 2772" transform="translate(0 5.814)" style="isolation: isolate">
          <g id="Group_2768" data-name="Group 2768" transform="translate(0 1.12)">
            <path id="Path_4613" data-name="Path 4613" d="M96.117,199.3a18.489,18.489,0,0,1,2.083,1.409c-3.446-1.273-6.072.679-6.084,4.843s2.594,9.138,6.036,11.842a14.341,14.341,0,0,1-2.083-1,20.254,20.254,0,0,1-4.516-3.619,20.129,20.129,0,0,1-2.343-8.9c.008-2.865.9-4.977,2.386-6.171a11.509,11.509,0,0,1,4.521,1.6Z" transform="translate(-89.21 -197.708)" fill="#fff"/>
          </g>
          <g id="Group_2769" data-name="Group 2769" transform="translate(4.307 19.431)">
            <path id="Path_4614" data-name="Path 4614" d="M122.2,274.584c-1.413,3.813-5.242,4.925-9.738,2.329a19.7,19.7,0,0,1-5.947-5.621,20.419,20.419,0,0,0,2.548,1.752c3.239,1.869,6.141,2.23,8.125,1.3a3.679,3.679,0,0,0,1.857-1.58Z" transform="translate(-106.518 -271.293)" fill="#fff"/>
          </g>
          <g id="Group_2770" data-name="Group 2770" transform="translate(4.331 5.571)">
            <path id="Path_4615" data-name="Path 4615" d="M112.591,216.413a12.791,12.791,0,0,1,4.891,5.79l-4.778-2.758a1.4,1.4,0,0,1-.122-.07c-1.867-1.078-3.386-.212-3.392,1.932a7.427,7.427,0,0,0,3.37,5.835c.041.024.079.043.122.065l4.778,2.765c-1.081,1.166-2.88,1.3-4.909.132a13.1,13.1,0,0,1-5.937-10.284C106.625,216.044,109.307,214.516,112.591,216.413Z" transform="translate(-106.615 -215.598)" fill="#fff"/>
          </g>
          <g id="Group_2771" data-name="Group 2771" transform="translate(4.362 0)">
            <path id="Path_4616" data-name="Path 4616" d="M112.7,194.626c4.5,2.6,8.308,8.12,9.693,13.546l-3.156-1.822a17.682,17.682,0,0,0-1.842-3.713,23.93,23.93,0,0,0-8.106-8.076,15.37,15.37,0,0,0-2.55-1.191A8.281,8.281,0,0,1,112.7,194.626Z" transform="translate(-106.737 -193.219)" fill="#fff"/>
          </g>
        </g>
        <g id="Group_2773" data-name="Group 2773" transform="translate(0.028 0)">
          <path id="Path_4617" data-name="Path 4617" d="M91.216,171.649a3.259,3.259,0,0,1,1.52,2.6c0,1.068-.65,1.517-1.712.9a3.38,3.38,0,0,1-1.694-2.817,1.585,1.585,0,0,1,.435-1.163l1.372-1.323.734,1-.79.736A.924.924,0,0,1,91.216,171.649Zm-.189,2.566c.457.265.736.034.738-.474a1.574,1.574,0,0,0-.733-1.294c-.451-.261-.729-.029-.73.449a1.541,1.541,0,0,0,.725,1.322" transform="translate(-89.329 -169.853)" fill="#fff"/>
        </g>
        <g id="Group_2774" data-name="Group 2774" transform="translate(2.854 29.864)">
          <path id="Path_4618" data-name="Path 4618" d="M102.039,290.139l-.009,3.024-.545-.316.006-2.216-.568.1-.243-.579.869-.292Z" transform="translate(-100.68 -289.857)" fill="#fff"/>
        </g>
        <g id="Group_2775" data-name="Group 2775" transform="translate(4.836 30.902)">
          <path id="Path_4619" data-name="Path 4619" d="M109.6,294.166a1.747,1.747,0,0,1,.909,1.428c0,.564-.5.869-.994,1l1.071.618v.546l-1.948-1.125v-.4c.892-.3,1.3-.54,1.3-.924a.739.739,0,0,0-.385-.623.642.642,0,0,0-.593-.03l-.273-.563a.9.9,0,0,1,.914.063Z" transform="translate(-108.638 -294.006)" fill="#fff"/>
        </g>
        <g id="Group_2776" data-name="Group 2776" transform="translate(7.205 33.162)">
          <path id="Path_4620" data-name="Path 4620" d="M118.488,303.156a.692.692,0,0,1,.323.553c0,.2-.142.282-.326.176a.693.693,0,0,1-.32-.548C118.167,303.129,118.308,303.051,118.488,303.156Z" transform="translate(-118.166 -303.11)" fill="#fff"/>
        </g>
        <g id="Group_2777" data-name="Group 2777" transform="translate(10.687 34.385)">
          <path id="Path_4621" data-name="Path 4621" d="M133.514,308.311l-.009,3.024-.544-.316.006-2.216-.57.1-.242-.578.869-.292Z" transform="translate(-132.157 -308.029)" fill="#fff"/>
        </g>
      </g>
    </g>
  </g>
</svg>
