<svg xmlns="http://www.w3.org/2000/svg" xmlns:xlink="http://www.w3.org/1999/xlink" width="179.905" height="42.447" viewBox="0 0 179.905 42.447">
  <defs>
    <linearGradient id="linear-gradient" y1="0.5" x2="1" y2="0.5" gradientUnits="objectBoundingBox">
      <stop offset="0" stop-color="#fff"/>
      <stop offset="1" stop-color="#6e007d"/>
    </linearGradient>
  </defs>
  <g id="Group_16082" data-name="Group 16082" transform="translate(-388.533 -178.33)">
    <path id="Path_9472" data-name="Path 9472" d="M421.666,208.613l-2.438-1.4-1.609.929h0l-9.441,5.451v2.855a.731.731,0,1,1-1.462,0v-2.811l-10.135-5.852-.99-.572h0l-2.438,1.4a.727.727,0,0,1-.364.1h0a.73.73,0,0,1-.107-.009l-.032-.006a.694.694,0,0,1-.079-.02l-.031-.01-.049-.02-.043-.021-.039-.022-.041-.027-.037-.028c-.016-.013-.031-.026-.046-.04l-.009-.008a.73.73,0,0,1,.148-1.154l2.07-1.193.378-.218V193.173l-.57-.328-1.879-1.082a.731.731,0,0,1-.269-1h0a.713.713,0,0,1,.05-.074l.014-.018a.68.68,0,0,1,.052-.058l.007-.007a.715.715,0,0,1,.082-.069l.02-.014a.7.7,0,0,1,.087-.051l.013-.006a.716.716,0,0,1,.071-.028l.017-.005.054-.015.018,0,.055-.009.018,0,.055,0h.02l.053,0,.022,0,.05.007.025,0,.047.012.026.007.045.017.027.01c.017.008.034.017.051.026l.018.009,2.438,1.4h0l1.239-.716,9.886-5.708v-2.811a.73.73,0,0,1,.73-.731h0a.731.731,0,0,1,.731.731v2.855l.019-.006,13.553,7.8,3.408-1.95a1.764,1.764,0,0,0,.644-2.4l-.013-.022h0l-.014-.022-.021-.038c-.01-.017-.022-.031-.031-.048a3.4,3.4,0,0,0-1.126-1.153l-2.025-1.169-4.242-2.449-9.232-5.33a3.456,3.456,0,0,0-1.689-.4,3.724,3.724,0,0,0-1.352.242,2.554,2.554,0,0,0-.337.16l-15.5,8.948a3.787,3.787,0,0,0-1.68,2.722c-.006.069-.009.137-.009.2v17.9c0,.067,0,.135.009.2a3.787,3.787,0,0,0,1.68,2.722l15.5,8.948a2.572,2.572,0,0,0,.345.163,3.731,3.731,0,0,0,1.345.239,3.456,3.456,0,0,0,1.689-.4l7.686-4.437L422,212.927h0l2.6-1.5a3.456,3.456,0,0,0,1.192-1.261c.014-.024-4.183-1.519-4.169-1.543Z" transform="translate(0)" fill="#1aeccf"/>
    <g id="Group_16076" data-name="Group 16076" transform="translate(436.002 188.587)">
      <g id="Group_16075" data-name="Group 16075" transform="translate(0 0)">
        <path id="Path_9473" data-name="Path 9473" d="M885.141,305.458c-6.523,0-9.769-4.318-9.769-10.951,0-6.852,3.433-10.982,10.143-10.982a9.523,9.523,0,0,1,6.273,1.94,8.114,8.114,0,0,1,2.559,5.507h-2.622a2.112,2.112,0,0,1-2.029-1.283c-.718-1.533-2.122-2.315-4.182-2.315-4.026,0-5.805,2.847-5.805,7.134,0,4.161,1.717,7.1,5.68,7.1a4.446,4.446,0,0,0,4.744-3.849h4.213C893.942,302.673,890.509,305.458,885.141,305.458Z" transform="translate(-875.372 -283.524)" fill="#150428"/>
        <path id="Path_9474" data-name="Path 9474" d="M1109.991,292.379c-2.466,0-3.527,2.065-3.527,4.6v8.479h-4.151V283.524h2.091a1.845,1.845,0,0,1,2.06,2.1v5.6a6.6,6.6,0,0,1,7.8-2.034q3.464,1.267,3.277,6.665v9.606h-4.12v-8.479C1113.424,294.194,1112.363,292.379,1109.991,292.379Z" transform="translate(-1080.185 -283.524)" fill="#150428"/>
        <path id="Path_9475" data-name="Path 9475" d="M1298.433,353.215c-4.994-.153-7.49-2.994-7.49-8.494s2.528-8.249,7.553-8.28c5.243,0,7.709,3.147,7.4,9.472h-10.674c.156,2.475,1.249,3.728,3.277,3.728a3.874,3.874,0,0,0,2.684-1.161,1.837,1.837,0,0,1,1.4-.581h3.059C1304.738,351.321,1302.491,353.215,1298.433,353.215Zm-3.152-10.2h6.211c-.25-2.139-1.28-3.239-3.059-3.239S1295.593,340.871,1295.281,343.01Z" transform="translate(-1250.423 -331.281)" fill="#150428"/>
        <path id="Path_9476" data-name="Path 9476" d="M1481.211,342.634v10.519H1477v-9.679c0-4.7,2.372-7.033,7.084-7.033a7.743,7.743,0,0,1,4.931,1.4,7.935,7.935,0,0,1,4.931-1.338c4.713,0,7.054,2.334,7.022,7.033v9.679h-2.153c-1.373-.093-2.06-.747-2.06-2.054V342.7c-.094-1.712-1.03-2.552-2.871-2.552s-2.778.84-2.809,2.552v10.457h-4.182V342.634c-.094-1.712-1.03-2.552-2.872-2.552S1481.243,340.922,1481.211,342.634Z" transform="translate(-1418.337 -331.281)" fill="#150428"/>
        <path id="Path_9477" data-name="Path 9477" d="M1757.309,283.524c1.373,0,2.028.711,2,2.1v1.261h-4.15v-3.362Zm0,5.125a1.773,1.773,0,0,1,2,2.034v14.775h-4.151V288.649Z" transform="translate(-1669.374 -283.524)" fill="#150428"/>
        <path id="Path_9478" data-name="Path 9478" d="M1834.2,285.621v19.837h-4.151V283.524h2.153A2.075,2.075,0,0,1,1834.2,285.621Z" transform="translate(-1736.969 -283.524)" fill="#150428"/>
        <path id="Path_9479" data-name="Path 9479" d="M1912.441,353.215c-4.993-.153-7.49-2.994-7.49-8.494s2.528-8.249,7.553-8.28c5.243,0,7.709,3.147,7.4,9.472h-10.674c.156,2.475,1.248,3.728,3.277,3.728a3.874,3.874,0,0,0,2.684-1.161,1.837,1.837,0,0,1,1.4-.581h3.059C1918.746,351.321,1916.5,353.215,1912.441,353.215Zm-3.152-10.2h6.211c-.25-2.139-1.28-3.239-3.059-3.239S1909.6,340.871,1909.289,343.01Z" transform="translate(-1804.563 -331.281)" fill="#150428"/>
        <path id="Path_9480" data-name="Path 9480" d="M2095.521,340.909h-4.151c.5-3,2.653-4.468,6.461-4.468,4.556,0,6.866,1.469,6.96,4.468v5.509c0,4.468-2.747,6.458-7.21,6.764-3.964.306-6.71-1.5-6.71-5.08.094-3.887,2.965-4.927,7.147-5.325,1.779-.214,2.684-.734,2.684-1.622-.094-.918-.968-1.377-2.684-1.377C2096.551,339.777,2095.74,340.144,2095.521,340.909Zm5.244,5.325v-1.5a18.251,18.251,0,0,1-3.308.979c-1.654.306-2.5,1.071-2.5,2.265a1.833,1.833,0,0,0,2.091,1.9A3.381,3.381,0,0,0,2100.765,346.234Z" transform="translate(-1972.355 -331.281)" fill="#150428"/>
      </g>
    </g>
    <path id="Path_9481" data-name="Path 9481" d="M421.666,421.665l-2.438-1.4-1.609.929h0l-9.441,5.451V429.5a.731.731,0,1,1-1.462,0v-2.811l-10.135-5.852-.99-.572h0l-2.438,1.4a.728.728,0,0,1-.364.1h0a.73.73,0,0,1-.107-.009l-.032-.006a.691.691,0,0,1-.079-.02l-.031-.01-.049-.02-.043-.021-.039-.022-.041-.027-.037-.028c-.016-.013-.031-.026-.046-.04l-.009-.008a.73.73,0,0,1,.148-1.154l2.07-1.193.378-.218V414.78a59.937,59.937,0,0,1-6.338-.38v7.154c0,.067,0,.135.009.2a3.787,3.787,0,0,0,1.68,2.722l15.5,8.948a2.568,2.568,0,0,0,.345.163,3.73,3.73,0,0,0,1.345.239,3.455,3.455,0,0,0,1.689-.4l7.686-4.437L422,425.979h0l2.6-1.5a3.456,3.456,0,0,0,1.192-1.261c.014-.024-4.183-1.519-4.169-1.543Z" transform="translate(0 -213.052)" fill="#13a4d1"/>
    <path id="Path_9482" data-name="Path 9482" d="M617.591,475.909l-2.438-1.4-1.609.929h0L605.625,480v7.318l7.083-4.09,5.215-3.011h0l2.6-1.5a3.456,3.456,0,0,0,1.193-1.261c.014-.024-4.183-1.519-4.169-1.543Z" transform="translate(-195.925 -267.296)" opacity="0.4" fill="url(#linear-gradient)" style="mix-blend-mode: multiply;isolation: isolate"/>
    <g id="Group_16081" data-name="Group 16081" transform="translate(399.132 191.3)">
      <g id="Group_16077" data-name="Group 16077" transform="translate(0 0)">
        <path id="Path_9483" data-name="Path 9483" d="M501.487,322.069a4.729,4.729,0,1,1,6.467,1.7,4.734,4.734,0,0,1-6.467-1.7m-3.117,1.817a8.337,8.337,0,1,0,3-11.4,8.337,8.337,0,0,0-3,11.4Z" transform="translate(-497.234 -311.349)" fill="#f7e13e"/>
      </g>
      <g id="Group_16080" data-name="Group 16080" transform="translate(0.261 6.34)">
        <g id="Group_16078" data-name="Group 16078">
          <path id="Path_9484" data-name="Path 9484" d="M512.683,377.806a4.729,4.729,0,0,1-9.1,2.283q-1.815.248-3.671.345a8.336,8.336,0,0,0,16.17-4.061Q514.4,377.165,512.683,377.806Z" transform="translate(-499.912 -376.373)" fill="#f4a640"/>
        </g>
        <g id="Group_16079" data-name="Group 16079" transform="translate(12.997 4.028)">
          <path id="Path_9485" data-name="Path 9485" d="M645.979,423.758a1.765,1.765,0,0,1,.643,2.4l-.047.082a1.756,1.756,0,0,1-2.395.642l-10.093-5.841a1.765,1.765,0,0,1-.643-2.4l.047-.082a1.756,1.756,0,0,1,2.395-.642Z" transform="translate(-633.211 -417.683)" fill="#f4a640"/>
        </g>
      </g>
    </g>
  </g>
</svg>
