<?xml version="1.0" encoding="utf-8"?>
<!-- Generator: Adobe Illustrator 24.1.2, SVG Export Plug-In . SVG Version: 6.00 Build 0)  -->
<svg version="1.1" id="Layer_1" xmlns="http://www.w3.org/2000/svg" xmlns:xlink="http://www.w3.org/1999/xlink" x="0px" y="0px"
	 viewBox="0 0 363.1 524.5" style="enable-background:new 0 0 363.1 524.5;" xml:space="preserve">
<style type="text/css">
	.st0{opacity:9.600000e-02;fill:#13A4D1;enable-background:new    ;}
</style>
<g>
	<path class="st0" d="M361.9,435.2L223,435.6l-15.6,0.1l-18.1,33.8c-0.8,1.5-2,2.8-3.5,3.7c-0.4,0.2-0.9,0.5-1.3,0.6
		c-0.1,0.1-0.3,0.1-0.4,0.1c-0.3,0.1-0.7,0.2-1.1,0.3c-0.1,0-0.3,0.1-0.4,0.1c-0.2,0-0.5,0.1-0.7,0.1c-0.2,0-0.4,0-0.6,0.1
		c-0.2,0-0.4,0-0.6,0s-0.4,0-0.7,0c-0.2,0-0.4,0-0.6-0.1c-0.3,0-0.6-0.1-0.8-0.2c-0.1,0-0.1,0-0.2,0c-0.9-0.2-1.7-0.6-2.5-1
		c-4.8-2.8-6.6-8.9-4.1-13.8l15.4-28.7l2.8-5.2L98.3,272.9l-9,0l-29.5,0.1c-5.6,0-10.1-4.5-10.3-10.1l0,0c0-0.4,0-0.8,0-1.2
		c0-0.1,0-0.2,0-0.3c0-0.4,0.1-0.7,0.2-1.1c0,0,0-0.1,0-0.1c0.1-0.5,0.3-0.9,0.5-1.4c0-0.1,0.1-0.2,0.1-0.3c0.2-0.4,0.4-0.8,0.6-1.2
		c0-0.1,0.1-0.1,0.1-0.2c0.2-0.3,0.4-0.6,0.6-0.8c0.1-0.1,0.1-0.1,0.2-0.2c0.2-0.2,0.3-0.4,0.5-0.6c0.1-0.1,0.1-0.1,0.2-0.2
		c0.2-0.2,0.4-0.3,0.6-0.5l0.2-0.2c0.2-0.1,0.4-0.3,0.6-0.4c0.1,0,0.2-0.1,0.2-0.1c0.2-0.1,0.4-0.2,0.6-0.3c0.1,0,0.2-0.1,0.3-0.1
		c0.2-0.1,0.4-0.2,0.6-0.3c0.1,0,0.2-0.1,0.3-0.1c0.2-0.1,0.4-0.1,0.6-0.2c0.1,0,0.2-0.1,0.4-0.1c0.2,0,0.4-0.1,0.6-0.1
		c0.1,0,0.3,0,0.4-0.1c0.3,0,0.5,0,0.8,0c0.1,0,0.2,0,0.3,0l38.3-0.2l9.2-17.2l73.5-137L160,64.9c-2.7-4.4-1.7-10.1,2.4-13.3
		c0.3-0.2,0.5-0.4,0.8-0.6l0,0c4.8-2.8,10.9-1.1,13.7,3.7l20.5,34.1l0.2-0.2l164.3-0.8V0.6l-57.4,0.2L159.3,1.3
		C152,1.3,144,4,136.9,8.2c-5.4,3.2-10.1,7.3-13.9,12.3c-1,1.3-1.9,2.8-2.8,4.3L5,239.6c-6.5,12.1-6.3,31.3,0.1,44.2
		c0.4,0.9,0.9,1.7,1.4,2.5L135,500.3c0.5,0.8,1,1.6,1.6,2.4c8.4,11.7,25.3,20.9,39,20.8l186.3-0.7V435.2z"/>
</g>
</svg>
