<svg xmlns="http://www.w3.org/2000/svg" width="18.84" height="19.768" viewBox="0 0 18.84 19.768">
  <g id="Group_1660" data-name="Group 1660" transform="translate(0)">
    <g id="Group_1658" data-name="Group 1658" transform="translate(5.558)">
      <path id="Path_3238" data-name="Path 3238" d="M-708.023,363.664a6.652,6.652,0,0,1-.376-9.389,6.651,6.651,0,0,1,9.388-.376,6.651,6.651,0,0,1,.377,9.389A6.652,6.652,0,0,1-708.023,363.664Zm7.526-8.154a4.457,4.457,0,0,0-6.292.251,4.458,4.458,0,0,0,.253,6.292,4.457,4.457,0,0,0,6.291-.253A4.457,4.457,0,0,0-700.5,355.511Z" transform="translate(710.157 -352.141)" fill="#fff"/>
    </g>
    <g id="Group_1659" data-name="Group 1659" transform="translate(0 9.622)">
      <path id="Path_3239" data-name="Path 3239" d="M-714.006,369.269a1.1,1.1,0,0,1-.062-1.549l7.34-7.952a1.1,1.1,0,0,1,1.549-.062,1.1,1.1,0,0,1,.062,1.548l-7.34,7.954A1.1,1.1,0,0,1-714.006,369.269Z" transform="translate(714.358 -359.414)" fill="#fff"/>
    </g>
  </g>
</svg>
